<?xml version="1.0" encoding="UTF-8"?>
<!DOCTYPE svg PUBLIC "-//W3C//DTD SVG 1.1//EN" "http://www.w3.org/Graphics/SVG/1.1/DTD/svg11.dtd">
<svg xmlns="http://www.w3.org/2000/svg" version="1.1" width="97px" height="100px" style="shape-rendering:geometricPrecision; text-rendering:geometricPrecision; image-rendering:optimizeQuality; fill-rule:evenodd; clip-rule:evenodd" xmlns:xlink="http://www.w3.org/1999/xlink">
<g><path style="opacity:1" fill="#f6b02f" d="M -0.5,-0.5 C 2.83333,-0.5 6.16667,-0.5 9.5,-0.5C 9.2643,9.04882 9.2643,18.5488 9.5,28C 7.3652,29.5557 7.03187,31.3891 8.5,33.5C 8.25721,36.8826 8.92388,40.0492 10.5,43C 5.23085,49.3017 5.56418,55.4683 11.5,61.5C 9.73843,65.7084 10.7384,69.0417 14.5,71.5C 14.4359,80.9146 14.7692,90.2479 15.5,99.5C 10.1667,99.5 4.83333,99.5 -0.5,99.5C -0.5,66.1667 -0.5,32.8333 -0.5,-0.5 Z"/></g>
<g><path style="opacity:1" fill="#f5a836" d="M 9.5,-0.5 C 13.5,-0.5 17.5,-0.5 21.5,-0.5C 21.5,5.5 21.5,11.5 21.5,17.5C 19.1289,19.9966 18.1289,22.9966 18.5,26.5C 14.0601,27.2762 10.7268,29.6096 8.5,33.5C 7.03187,31.3891 7.3652,29.5557 9.5,28C 9.2643,18.5488 9.2643,9.04882 9.5,-0.5 Z"/></g>
<g><path style="opacity:1" fill="#f39947" d="M 21.5,-0.5 C 28.5,-0.5 35.5,-0.5 42.5,-0.5C 42.5,2.5 42.5,5.5 42.5,8.5C 37.6889,7.7401 34.0223,9.40676 31.5,13.5C 27.7705,13.9983 24.4372,15.3316 21.5,17.5C 21.5,11.5 21.5,5.5 21.5,-0.5 Z"/></g>
<g><path style="opacity:1" fill="#f18758" d="M 42.5,-0.5 C 46.8333,-0.5 51.1667,-0.5 55.5,-0.5C 55.8951,2.42563 55.8951,5.42563 55.5,8.5C 52.5881,9.42889 49.9214,10.7622 47.5,12.5C 46.3282,10.461 44.6616,9.12763 42.5,8.5C 42.5,5.5 42.5,2.5 42.5,-0.5 Z"/></g>
<g><path style="opacity:1" fill="#ee7569" d="M 55.5,-0.5 C 62.5,-0.5 69.5,-0.5 76.5,-0.5C 76.5,5.83333 76.5,12.1667 76.5,18.5C 73.3419,15.8842 69.6752,14.2175 65.5,13.5C 63.1696,9.93896 59.8362,8.27229 55.5,8.5C 55.8951,5.42563 55.8951,2.42563 55.5,-0.5 Z"/></g>
<g><path style="opacity:1" fill="#ed6777" d="M 76.5,-0.5 C 81.1667,-0.5 85.8333,-0.5 90.5,-0.5C 89.9332,1.02951 89.2666,2.52951 88.5,4C 88.5,12 88.5,20 88.5,28C 89.5742,28.7387 90.2409,29.7387 90.5,31C 90.6403,36.0707 90.307,41.2373 89.5,46.5C 88.6364,45.3117 87.6364,44.1451 86.5,43C 90.3728,34.9089 88.0394,29.4089 79.5,26.5C 78.7465,23.7062 77.7465,21.0396 76.5,18.5C 76.5,12.1667 76.5,5.83333 76.5,-0.5 Z"/></g>
<g><path style="opacity:1" fill="#ee617e" d="M 90.5,-0.5 C 92.5,-0.5 94.5,-0.5 96.5,-0.5C 96.5,32.8333 96.5,66.1667 96.5,99.5C 91.8333,99.5 87.1667,99.5 82.5,99.5C 83.1867,90.0878 83.5201,80.7545 83.5,71.5C 86.3452,68.6073 87.0119,65.2739 85.5,61.5C 89.7174,57.1936 91.0507,52.1936 89.5,46.5C 90.307,41.2373 90.6403,36.0707 90.5,31C 90.2409,29.7387 89.5742,28.7387 88.5,28C 88.5,20 88.5,12 88.5,4C 89.2666,2.52951 89.9332,1.02951 90.5,-0.5 Z"/></g>
<g><path style="opacity:1" fill="#ef8e4e" d="M 46.5,13.5 C 47.6502,29.4259 47.8169,45.4259 47,61.5C 45.6607,58.6225 43.8274,56.9558 41.5,56.5C 43.524,58.6898 45.3573,61.0232 47,63.5C 47.6667,70.8333 47.6667,78.1667 47,85.5C 46.4867,86.5266 45.9867,87.5266 45.5,88.5C 40.8197,91.5627 36.8197,90.896 33.5,86.5C 34.6266,85.8783 35.6266,85.045 36.5,84C 36.1164,83.0494 35.7831,82.2161 35.5,81.5C 40.376,78.5734 41.5426,74.5734 39,69.5C 40.2894,73.6693 39.1227,77.0026 35.5,79.5C 36.0347,72.0639 36.368,64.8972 36.5,58C 35.1772,57.1841 34.5106,56.0174 34.5,54.5C 36.1368,55.2178 37.8034,55.3845 39.5,55C 38.4366,53.8118 37.1033,53.3118 35.5,53.5C 35.2687,50.5124 35.6021,47.3457 36.5,44C 35.8333,43.6667 35.1667,43.3333 34.5,43C 35.3567,42.3109 36.0233,41.4776 36.5,40.5C 36.3063,34.9302 36.3063,29.4302 36.5,24C 35.536,22.2745 34.8693,20.4412 34.5,18.5C 35.3635,19.463 36.0302,19.463 36.5,18.5C 32.2902,15.4142 32.6235,12.9142 37.5,11C 40.9928,10.1307 43.9928,10.964 46.5,13.5 Z"/></g>
<g><path style="opacity:1" fill="#1d1409" d="M 42.5,8.5 C 44.6616,9.12763 46.3282,10.461 47.5,12.5C 46.8333,12.5 46.5,12.8333 46.5,13.5C 43.9928,10.964 40.9928,10.1307 37.5,11C 32.6235,12.9142 32.2902,15.4142 36.5,18.5C 36.0302,19.463 35.3635,19.463 34.5,18.5C 25.2539,15.0538 20.5872,18.3871 20.5,28.5C 12.8536,29.1346 9.85361,33.1346 11.5,40.5C 13.741,40.4982 16.0743,40.8316 18.5,41.5C 7.66159,44.9252 5.82826,50.9252 13,59.5C 14.692,57.7554 16.5253,57.4221 18.5,58.5C 11.9611,61.0476 10.9611,64.881 15.5,70C 16.448,70.4828 17.448,70.6495 18.5,70.5C 18.6878,67.7939 19.6878,65.4605 21.5,63.5C 25.8663,61.7359 27.6996,58.4026 27,53.5C 27.4186,52.3279 28.0853,51.3279 29,50.5C 26.2061,56.1829 27.3728,61.0162 32.5,65C 30.5826,64.9725 28.916,64.1392 27.5,62.5C 17.9742,68.3476 16.9742,75.5143 24.5,84C 27.2065,85.9076 30.2065,86.741 33.5,86.5C 36.8197,90.896 40.8197,91.5627 45.5,88.5C 45.5,89.1667 45.8333,89.5 46.5,89.5C 41.7744,93.6632 37.1077,93.4965 32.5,89C 30.8659,88.5065 29.1992,88.3398 27.5,88.5C 20.8965,85.324 17.2299,79.9906 16.5,72.5C 15.8165,72.1373 15.1499,71.8039 14.5,71.5C 10.7384,69.0417 9.73843,65.7084 11.5,61.5C 5.56418,55.4683 5.23085,49.3017 10.5,43C 8.92388,40.0492 8.25721,36.8826 8.5,33.5C 10.7268,29.6096 14.0601,27.2762 18.5,26.5C 18.1289,22.9966 19.1289,19.9966 21.5,17.5C 24.4372,15.3316 27.7705,13.9983 31.5,13.5C 34.0223,9.40676 37.6889,7.7401 42.5,8.5 Z"/></g>
<g><path style="opacity:1" fill="#f29944" d="M 34.5,18.5 C 34.8693,20.4412 35.536,22.2745 36.5,24C 36.3063,29.4302 36.3063,34.9302 36.5,40.5C 36.0233,41.4776 35.3567,42.3109 34.5,43C 35.1667,43.3333 35.8333,43.6667 36.5,44C 35.6021,47.3457 35.2687,50.5124 35.5,53.5C 33.7761,53.4607 33.4427,53.794 34.5,54.5C 34.5106,56.0174 35.1772,57.1841 36.5,58C 36.368,64.8972 36.0347,72.0639 35.5,79.5C 31.7139,80.6953 31.7139,81.362 35.5,81.5C 35.7831,82.2161 36.1164,83.0494 36.5,84C 35.6266,85.045 34.6266,85.8783 33.5,86.5C 30.2065,86.741 27.2065,85.9076 24.5,84C 16.9742,75.5143 17.9742,68.3476 27.5,62.5C 28.916,64.1392 30.5826,64.9725 32.5,65C 27.3728,61.0162 26.2061,56.1829 29,50.5C 28.0853,51.3279 27.4186,52.3279 27,53.5C 27.6996,58.4026 25.8663,61.7359 21.5,63.5C 22.5446,57.9734 22.5446,52.9734 21.5,48.5C 21.4346,48.9382 21.6012,49.2716 22,49.5C 23.5484,48.0863 24.215,46.4196 24,44.5C 23.1482,45.5707 22.3149,46.5707 21.5,47.5C 21.8235,40.9779 21.4902,34.6446 20.5,28.5C 20.5872,18.3871 25.2539,15.0538 34.5,18.5 Z"/></g>
<g><path style="opacity:1" fill="#190e0c" d="M 55.5,8.5 C 59.8362,8.27229 63.1696,9.93896 65.5,13.5C 69.6752,14.2175 73.3419,15.8842 76.5,18.5C 77.7465,21.0396 78.7465,23.7062 79.5,26.5C 88.0394,29.4089 90.3728,34.9089 86.5,43C 87.6364,44.1451 88.6364,45.3117 89.5,46.5C 91.0507,52.1936 89.7174,57.1936 85.5,61.5C 87.0119,65.2739 86.3452,68.6073 83.5,71.5C 82.4168,71.5394 81.4168,71.8728 80.5,72.5C 79.8141,80.4961 75.8141,85.8295 68.5,88.5C 64.7297,90.2078 60.7297,91.5411 56.5,92.5C 53.2967,92.2317 50.63,90.8984 48.5,88.5C 47.8933,88.6236 47.56,88.9569 47.5,89.5C 47.1667,89.5 46.8333,89.5 46.5,89.5C 45.8333,89.5 45.5,89.1667 45.5,88.5C 45.9867,87.5266 46.4867,86.5266 47,85.5C 47.6667,78.1667 47.6667,70.8333 47,63.5C 45.3573,61.0232 43.524,58.6898 41.5,56.5C 43.8274,56.9558 45.6607,58.6225 47,61.5C 47.8169,45.4259 47.6502,29.4259 46.5,13.5C 46.5,12.8333 46.8333,12.5 47.5,12.5C 49.9214,10.7622 52.5881,9.42889 55.5,8.5 Z"/></g>
<g><path style="opacity:1" fill="#ef815d" d="M 61.5,19.5 C 62.5808,26.9499 62.5808,34.2832 61.5,41.5C 58.3442,40.2281 58.0109,40.5614 60.5,42.5C 60.7828,43.2891 61.2828,43.9558 62,44.5C 62.2418,47.6966 62.4085,50.6966 62.5,53.5C 61.0222,53.238 59.6888,53.5713 58.5,54.5C 58.6236,55.1067 58.9569,55.44 59.5,55.5C 60.5,55.5 61.5,55.5 62.5,55.5C 61.6288,63.6025 61.6288,71.6025 62.5,79.5C 60.2475,79.0844 58.7475,77.751 58,75.5C 57.6948,73.4432 57.6948,71.4432 58,69.5C 55.267,75.0407 56.767,79.0407 62.5,81.5C 61.6201,83.3888 61.6201,85.3888 62.5,87.5C 57.568,91.9838 53.4013,91.3172 50,85.5C 49.3333,78.1667 49.3333,70.8333 50,63.5C 51.6427,61.0232 53.476,58.6898 55.5,56.5C 53.1726,56.9558 51.3393,58.6225 50,61.5C 49.3333,45.8333 49.3333,30.1667 50,14.5C 54.5878,9.20521 59.0878,9.20521 63.5,14.5C 62.5,15.8333 61.5,17.1667 60.5,18.5C 60.6236,19.1067 60.9569,19.44 61.5,19.5 Z"/></g>
<g><path style="opacity:1" fill="#ed7667" d="M 75.5,21.5 C 76.7754,31.1401 76.7754,40.1401 75.5,48.5C 72.239,43.3353 71.9057,43.6687 74.5,49.5C 74.9528,50.4584 75.6195,51.2917 76.5,52C 76.3973,55.7943 76.064,59.6276 75.5,63.5C 71.1337,61.7359 69.3004,58.4026 70,53.5C 69.5814,52.3279 68.9147,51.3279 68,50.5C 70.7939,56.1829 69.6272,61.0162 64.5,65C 66.4174,64.9725 68.084,64.1392 69.5,62.5C 78.9656,68.3836 79.9656,75.5503 72.5,84C 69.2402,85.475 65.9069,86.6416 62.5,87.5C 61.6201,85.3888 61.6201,83.3888 62.5,81.5C 63.2389,81.631 63.9056,81.4643 64.5,81C 63.5842,80.7216 62.9175,80.2216 62.5,79.5C 61.6288,71.6025 61.6288,63.6025 62.5,55.5C 61.5,55.5 60.5,55.5 59.5,55.5C 61.246,54.9987 62.246,54.3321 62.5,53.5C 62.4085,50.6966 62.2418,47.6966 62,44.5C 61.2828,43.9558 60.7828,43.2891 60.5,42.5C 61.1667,42.5 61.5,42.1667 61.5,41.5C 62.5808,34.2832 62.5808,26.9499 61.5,19.5C 66.8121,15.162 71.4788,15.8287 75.5,21.5 Z"/></g>
<g><path style="opacity:1" fill="#492521" d="M 64.5,24.5 C 67.0381,24.118 68.8714,25.4513 70,28.5C 70.9357,31.792 70.4357,34.792 68.5,37.5C 68.1667,37.3333 67.8333,37.1667 67.5,37C 70.6371,31.8536 69.6371,27.6869 64.5,24.5 Z"/></g>
<g><path style="opacity:1" fill="#492f17" d="M 30.5,23.5 C 31.2389,23.369 31.9056,23.5357 32.5,24C 27.6539,27.8466 26.3206,32.3466 28.5,37.5C 25.5224,32.3428 26.1891,27.6762 30.5,23.5 Z"/></g>
<g><path style="opacity:1" fill="#4d2a1f" d="M 55.5,25.5 C 56.2389,25.369 56.9056,25.5357 57.5,26C 55.4305,29.6683 54.9305,33.5017 56,37.5C 54.2157,33.6365 54.0491,29.6365 55.5,25.5 Z"/></g>
<g><path style="opacity:1" fill="#eea138" d="M 20.5,28.5 C 21.4902,34.6446 21.8235,40.9779 21.5,47.5C 21.5,47.8333 21.5,48.1667 21.5,48.5C 22.5446,52.9734 22.5446,57.9734 21.5,63.5C 19.6878,65.4605 18.6878,67.7939 18.5,70.5C 17.448,70.6495 16.448,70.4828 15.5,70C 10.9611,64.881 11.9611,61.0476 18.5,58.5C 16.5253,57.4221 14.692,57.7554 13,59.5C 5.82826,50.9252 7.66159,44.9252 18.5,41.5C 16.0743,40.8316 13.741,40.4982 11.5,40.5C 9.85361,33.1346 12.8536,29.1346 20.5,28.5 Z"/></g>
<g><path style="opacity:1" fill="#e6686f" d="M 75.5,21.5 C 76.4682,23.6074 76.8016,25.9407 76.5,28.5C 84.3938,28.9819 87.3938,32.9819 85.5,40.5C 83.1384,40.9743 80.805,41.3076 78.5,41.5C 89.3384,44.9252 91.1717,50.9252 84,59.5C 82.308,57.7554 80.4747,57.4221 78.5,58.5C 85.0389,61.0476 86.0389,64.881 81.5,70C 80.552,70.4828 79.552,70.6495 78.5,70.5C 78.3122,67.7939 77.3122,65.4605 75.5,63.5C 76.064,59.6276 76.3973,55.7943 76.5,52C 75.6195,51.2917 74.9528,50.4584 74.5,49.5C 75.1667,49.5 75.5,49.1667 75.5,48.5C 76.7754,40.1401 76.7754,31.1401 75.5,21.5 Z"/></g>
<g><path style="opacity:1" fill="#362114" d="M 39.5,26.5 C 39.56,25.9569 39.8933,25.6236 40.5,25.5C 42.8117,29.1398 42.9784,32.8065 41,36.5C 40.8829,35.0496 41.0495,33.5496 41.5,32C 41.2994,29.8886 40.6327,28.0552 39.5,26.5 Z"/></g>
<g><path style="opacity:1" fill="#48261d" d="M 61.5,41.5 C 61.5,42.1667 61.1667,42.5 60.5,42.5C 58.0109,40.5614 58.3442,40.2281 61.5,41.5 Z"/></g>
<g><path style="opacity:1" fill="#472f14" d="M 21.5,48.5 C 21.5,48.1667 21.5,47.8333 21.5,47.5C 22.3149,46.5707 23.1482,45.5707 24,44.5C 24.215,46.4196 23.5484,48.0863 22,49.5C 21.6012,49.2716 21.4346,48.9382 21.5,48.5 Z"/></g>
<g><path style="opacity:1" fill="#452120" d="M 75.5,48.5 C 75.5,49.1667 75.1667,49.5 74.5,49.5C 71.9057,43.6687 72.239,43.3353 75.5,48.5 Z"/></g>
<g><path style="opacity:1" fill="#653e21" d="M 35.5,53.5 C 37.1033,53.3118 38.4366,53.8118 39.5,55C 37.8034,55.3845 36.1368,55.2178 34.5,54.5C 33.4427,53.794 33.7761,53.4607 35.5,53.5 Z"/></g>
<g><path style="opacity:1" fill="#4b281f" d="M 62.5,53.5 C 62.246,54.3321 61.246,54.9987 59.5,55.5C 58.9569,55.44 58.6236,55.1067 58.5,54.5C 59.6888,53.5713 61.0222,53.238 62.5,53.5 Z"/></g>
<g><path style="opacity:1" fill="#f4a33c" d="M 14.5,71.5 C 15.1499,71.8039 15.8165,72.1373 16.5,72.5C 17.2299,79.9906 20.8965,85.324 27.5,88.5C 28.2143,92.2864 28.5476,95.953 28.5,99.5C 24.1667,99.5 19.8333,99.5 15.5,99.5C 14.7692,90.2479 14.4359,80.9146 14.5,71.5 Z"/></g>
<g><path style="opacity:1" fill="#ee6d71" d="M 83.5,71.5 C 83.5201,80.7545 83.1867,90.0878 82.5,99.5C 78.5,99.5 74.5,99.5 70.5,99.5C 69.4023,95.95 69.4023,92.45 70.5,89C 69.9056,88.5357 69.2389,88.369 68.5,88.5C 75.8141,85.8295 79.8141,80.4961 80.5,72.5C 81.4168,71.8728 82.4168,71.5394 83.5,71.5 Z"/></g>
<g><path style="opacity:1" fill="#41241c" d="M 62.5,79.5 C 62.9175,80.2216 63.5842,80.7216 64.5,81C 63.9056,81.4643 63.2389,81.631 62.5,81.5C 56.767,79.0407 55.267,75.0407 58,69.5C 57.6948,71.4432 57.6948,73.4432 58,75.5C 58.7475,77.751 60.2475,79.0844 62.5,79.5 Z"/></g>
<g><path style="opacity:1" fill="#452b18" d="M 35.5,81.5 C 31.7139,81.362 31.7139,80.6953 35.5,79.5C 39.1227,77.0026 40.2894,73.6693 39,69.5C 41.5426,74.5734 40.376,78.5734 35.5,81.5 Z"/></g>
<g><path style="opacity:1" fill="#f1805f" d="M 47.5,89.5 C 47.56,88.9569 47.8933,88.6236 48.5,88.5C 50.63,90.8984 53.2967,92.2317 56.5,92.5C 60.7297,91.5411 64.7297,90.2078 68.5,88.5C 69.2389,88.369 69.9056,88.5357 70.5,89C 69.4023,92.45 69.4023,95.95 70.5,99.5C 63.5,99.5 56.5,99.5 49.5,99.5C 49.6646,96.4816 49.498,93.4816 49,90.5C 48.6174,89.944 48.1174,89.6107 47.5,89.5 Z"/></g>
<g><path style="opacity:1" fill="#f3924d" d="M 27.5,88.5 C 29.1992,88.3398 30.8659,88.5065 32.5,89C 37.1077,93.4965 41.7744,93.6632 46.5,89.5C 46.8333,89.5 47.1667,89.5 47.5,89.5C 48.1174,89.6107 48.6174,89.944 49,90.5C 49.498,93.4816 49.6646,96.4816 49.5,99.5C 42.5,99.5 35.5,99.5 28.5,99.5C 28.5476,95.953 28.2143,92.2864 27.5,88.5 Z"/></g>
</svg>
